<svg xmlns="http://www.w3.org/2000/svg" version="1.1" xmlns:xlink="http://www.w3.org/1999/xlink" width="512" height="512" x="0" y="0" viewBox="0 0 512 512" style="enable-background:new 0 0 512 512" xml:space="preserve" class=""><g><linearGradient id="a" x1="256" x2="256" y1="512" y2="0" gradientUnits="userSpaceOnUse"><stop offset="0" stop-color="#5558ff"></stop><stop offset="1" stop-color="#00c0ff"></stop></linearGradient><path fill="url(#a)" d="M428.259 256c6.518-6.733 12.579-13.482 18.114-20.209 35.017-42.563 45.835-80.667 30.463-107.291-15.37-26.625-53.777-36.307-108.147-27.263-8.562 1.424-17.404 3.291-26.46 5.557-2.596-9.168-5.44-17.941-8.535-26.24C314.326 28.608 286.734 0 256 0s-58.326 28.608-77.694 80.554c-3.094 8.299-5.938 17.072-8.534 26.24-9.055-2.267-17.897-4.133-26.459-5.557-54.368-9.042-92.777.638-108.148 27.263-15.372 26.625-4.553 64.728 30.464 107.291 5.534 6.727 11.596 13.476 18.114 20.209-6.518 6.733-12.579 13.482-18.114 20.209-35.018 42.563-45.837 80.666-30.465 107.291 19.405 33.61 69.975 33.613 108.148 27.263 8.562-1.424 17.404-3.291 26.459-5.557 2.596 9.168 5.44 17.941 8.534 26.24C197.674 483.392 225.266 512 256 512s58.326-28.608 77.694-80.554c3.094-8.299 5.939-17.072 8.535-26.24 9.056 2.267 17.898 4.133 26.46 5.557 38.171 6.349 88.744 6.347 108.147-27.263 15.372-26.624 4.554-64.728-30.463-107.291-5.534-6.727-11.596-13.476-18.114-20.209zm-289.87 125.169c-39.951 6.646-68.828 1.909-77.245-12.669-8.417-14.579 1.92-41.955 27.65-73.231 5.06-6.15 10.609-12.329 16.583-18.502 14.6 13.078 30.814 25.941 48.291 38.303 1.959 21.309 4.978 41.791 8.985 61.002-8.315 2.081-16.423 3.793-24.264 5.097zm12.916-105.152c-8.491-6.59-16.565-13.276-24.169-20.017 7.604-6.74 15.678-13.427 24.169-20.017-.199 6.628-.305 13.302-.305 20.017s.106 13.389.305 20.017zm2.364-79.087c-17.477 12.362-33.691 25.225-48.291 38.303-5.974-6.173-11.524-12.352-16.583-18.502-25.73-31.276-36.067-58.652-27.65-73.231 8.417-14.578 37.293-19.315 77.245-12.669 7.84 1.304 15.949 3.016 24.265 5.097-4.008 19.211-7.027 39.694-8.986 61.002zm172.036-21.575a665.764 665.764 0 0 0-17.205-10.288 664.15 664.15 0 0 0-17.488-9.743c9.969-4.065 19.813-7.72 29.468-10.939 2.025 9.971 3.77 20.318 5.225 30.97zm-119.29-84.32C220.665 52.817 239.201 30 256 30s35.335 22.817 49.585 61.035c2.838 7.613 5.45 15.673 7.838 24.107-18.659 6.112-37.942 13.734-57.423 22.706-19.481-8.972-38.765-16.595-57.423-22.706 2.388-8.434 5-16.495 7.838-24.107zm-14.894 53.35c9.655 3.219 19.499 6.874 29.468 10.939a664.202 664.202 0 0 0-17.489 9.743 662.937 662.937 0 0 0-17.205 10.288c1.455-10.652 3.2-20.999 5.226-30.97zm-5.226 192.26a665.764 665.764 0 0 0 17.205 10.288 662.599 662.599 0 0 0 17.489 9.743c-9.969 4.065-19.813 7.72-29.468 10.939-2.026-9.971-3.771-20.318-5.226-30.97zm119.29 84.32C291.335 459.183 272.799 482 256 482s-35.335-22.817-49.585-61.035c-2.838-7.613-5.45-15.673-7.838-24.107 18.659-6.111 37.942-13.734 57.423-22.706 19.481 8.972 38.765 16.594 57.423 22.706-2.388 8.434-5 16.495-7.838 24.107zm14.894-53.35c-9.655-3.219-19.499-6.873-29.468-10.939a662.548 662.548 0 0 0 17.488-9.743 660.133 660.133 0 0 0 17.205-10.288c-1.454 10.652-3.199 20.999-5.225 30.97zm9.093-69.143a625.535 625.535 0 0 1-36.072 22.48 625.969 625.969 0 0 1-37.5 19.997 625.395 625.395 0 0 1-37.5-19.997 625.535 625.535 0 0 1-36.072-22.48C181.487 284.606 181 270.407 181 256s.487-28.606 1.428-42.472a625.535 625.535 0 0 1 36.072-22.48 625.969 625.969 0 0 1 37.5-19.997 625.395 625.395 0 0 1 37.5 19.997 625.535 625.535 0 0 1 36.072 22.48C330.513 227.394 331 241.593 331 256s-.487 28.606-1.428 42.472zm44.038-167.641c39.951-6.646 68.828-1.909 77.245 12.669 8.417 14.579-1.919 41.955-27.65 73.231-5.06 6.15-10.609 12.329-16.583 18.502-14.6-13.078-30.814-25.941-48.291-38.303-1.959-21.309-4.978-41.791-8.985-61.002 8.316-2.081 16.424-3.793 24.264-5.097zm-12.915 105.152c8.491 6.59 16.565 13.276 24.169 20.017-7.604 6.74-15.678 13.427-24.169 20.017.199-6.628.305-13.302.305-20.017s-.106-13.389-.305-20.017zm90.16 132.517c-8.417 14.579-37.294 19.315-77.245 12.669-7.84-1.304-15.948-3.016-24.264-5.097 4.007-19.211 7.026-39.693 8.985-61.002 17.477-12.362 33.691-25.226 48.291-38.303 5.974 6.174 11.523 12.352 16.583 18.502 25.732 31.276 36.067 58.652 27.65 73.231zM256 211c-24.813 0-45 20.187-45 45s20.187 45 45 45 45-20.187 45-45-20.186-45-45-45zm0 60c-8.271 0-15-6.729-15-15s6.729-15 15-15 15 6.729 15 15-6.729 15-15 15z" opacity="1" data-original="url(#a)" class=""></path></g></svg>